<svg width="61" height="39" viewBox="0 0 61 39" fill="none" xmlns="http://www.w3.org/2000/svg">
<path d="M3.37091 38.7571C1.3214 38.7571 0 37.5156 0 35.5723C0 33.6291 1.3214 32.3875 3.37091 32.3875H8.38683C7.92838 31.7938 7.65871 31.0381 7.65871 30.1744C7.65871 29.0408 8.11715 28.0962 8.8992 27.4754C8.11715 26.8547 7.65871 25.91 7.65871 24.7765C7.65871 23.6429 8.11715 22.6983 8.8992 22.0775C8.11715 21.4567 7.65871 20.5121 7.65871 19.3785C7.65871 18.245 8.11715 17.3003 8.8992 16.6796C8.11715 16.0588 7.65871 15.1142 7.65871 13.9806C7.65871 12.8471 8.11715 11.9024 8.8992 11.2817C8.11715 10.6609 7.65871 9.71626 7.65871 8.5827C7.65871 7.71903 7.92838 6.96332 8.38683 6.36955H3.37091C1.3214 6.36955 0 5.12803 0 3.18478C0 1.24152 1.3214 0 3.37091 0H18.7962C20.8457 0 22.1671 1.24152 22.1671 3.18478C22.1671 5.12803 20.8457 6.36955 18.7962 6.36955H13.7803C14.2387 6.96332 14.5354 7.71903 14.5354 8.5827C14.5354 9.71626 14.05 10.6609 13.2679 11.2817C14.05 11.9024 14.5354 12.8471 14.5354 13.9806C14.5354 15.1142 14.05 16.0588 13.2679 16.6796C14.05 17.3003 14.5354 18.245 14.5354 19.3785C14.5354 20.5121 14.05 21.4567 13.2679 22.0775C14.05 22.6983 14.5354 23.6429 14.5354 24.7765C14.5354 25.91 14.05 26.8547 13.2679 27.4754C14.05 28.0962 14.5354 29.0408 14.5354 30.1744C14.5354 31.0381 14.2387 31.7938 13.7803 32.3875H18.7962C20.8457 32.3875 22.1671 33.6291 22.1671 35.5723C22.1671 37.5156 20.8457 38.7571 18.7962 38.7571H3.37091Z" fill="black"/>
<path d="M26.6167 39C24.6481 39 23.1919 37.5426 23.1919 35.5723C23.1649 34.4388 23.6503 33.4941 24.4324 32.8734C23.6503 32.2526 23.1919 31.308 23.1919 30.1744C23.1649 29.0408 23.6503 28.0962 24.4324 27.4754C23.6503 26.8547 23.1919 25.91 23.1919 24.7765C23.1919 23.5889 23.7042 22.5903 24.5672 21.9696C23.7582 21.4298 23.2997 20.5121 23.2997 19.3785C23.2997 18.245 23.7582 17.3273 24.5672 16.7875C23.7042 16.1668 23.1919 15.1682 23.1919 13.9806C23.1649 12.8471 23.6503 11.9024 24.4324 11.2817C23.6503 10.6609 23.1919 9.71626 23.1919 8.5827C23.1919 7.39516 23.7042 6.39654 24.5672 5.77578C23.7582 5.23599 23.2997 4.31834 23.2997 3.18478C23.2997 1.24152 24.6211 0 26.6706 0H42.0959C44.1454 0 45.4668 1.24152 45.4668 3.18478C45.4668 4.10242 45.1702 4.85813 44.6578 5.39792C45.0623 5.23599 45.5477 5.12803 46.0332 5.12803C48.0018 5.12803 49.485 6.61246 49.485 8.5827C49.485 9.71626 48.9996 10.6609 48.2175 11.2817C48.9996 11.9024 49.485 12.8471 49.485 13.9806C49.485 15.9509 48.0018 17.4083 46.0332 17.4083C45.5477 17.4083 45.0623 17.3273 44.6578 17.1654C45.1702 17.7052 45.4668 18.4609 45.4668 19.3785C45.4668 21.3218 44.1454 22.5633 42.0959 22.5633H40.9633C41.4218 23.1571 41.7184 23.9128 41.7184 24.7765C41.7184 25.6131 41.4487 26.3419 41.0172 26.9087C41.3678 26.8007 41.7454 26.7197 42.1499 26.7197C44.1185 26.7197 45.6017 28.2042 45.6017 30.1744C45.6017 31.0111 45.332 31.7398 44.9005 32.3066C45.2511 32.1986 45.6286 32.1176 46.0332 32.1176C48.0018 32.1176 49.485 33.6021 49.485 35.5723C49.485 37.5426 48.0018 39 46.0332 39C44.0645 39 42.6083 37.5426 42.6083 35.5723C42.6083 34.7356 42.851 34.0069 43.2825 33.4401C42.9319 33.5481 42.5544 33.6021 42.1499 33.6021C40.1813 33.6021 38.725 32.1446 38.725 30.1744C38.725 29.3377 38.9677 28.609 39.3992 28.0422C39.0486 28.1502 38.6711 28.2042 38.2666 28.2042C36.298 28.2042 34.8417 26.7467 34.8417 24.7765C34.8417 23.9128 35.1114 23.1571 35.5698 22.5633H29.3134C29.7719 23.1571 30.0685 23.9128 30.0685 24.7765C30.0685 25.91 29.5831 26.8547 28.8011 27.4754C29.5831 28.0962 30.0685 29.0408 30.0685 30.1744C30.0685 31.308 29.5831 32.2526 28.8011 32.8734C29.5831 33.4941 30.0685 34.4388 30.0685 35.5723C30.0685 37.5426 28.5853 39 26.6167 39ZM42.0959 16.1938C42.6353 16.1938 43.1477 16.2747 43.5791 16.4637C42.9589 15.8429 42.6083 14.9792 42.6083 13.9806C42.6083 12.8471 43.0668 11.9024 43.8488 11.2817C43.0668 10.6609 42.6083 9.71626 42.6083 8.5827C42.6083 7.58408 42.9589 6.72042 43.5791 6.12664C43.1477 6.28858 42.6353 6.36955 42.0959 6.36955H29.3134C29.7719 6.96332 30.0685 7.71903 30.0685 8.5827C30.0685 9.71626 29.5831 10.6609 28.8011 11.2817C29.5831 11.9024 30.0685 12.8471 30.0685 13.9806C30.0685 14.8443 29.7719 15.6 29.3134 16.1938H42.0959Z" fill="black"/>
<path d="M53.8537 38.7571C51.8042 38.7571 50.4828 37.5156 50.4828 35.5723C50.4828 34.3578 50.9951 33.4131 51.8851 32.8734C50.9951 32.3336 50.4828 31.3889 50.4828 30.1744C50.4828 28.2311 51.8042 26.9896 53.8537 26.9896H57.6291C59.6786 26.9896 61 28.2311 61 30.1744C61 31.3889 60.4876 32.3336 59.5977 32.8734C60.4876 33.4131 61 34.3578 61 35.5723C61 37.5156 59.6786 38.7571 57.6291 38.7571H53.8537Z" fill="black"/>
</svg>
